<svg id="Layer_1" data-name="Layer 1" xmlns="http://www.w3.org/2000/svg" viewBox="0 0 334.56 239"><rect x="118.78" y="57.5" width="98" height="124" rx="11.01"/><path d="M232.86,77.5V67.35a13.77,13.77,0,0,0-4.05-9.76l-18-18.05a13.8,13.8,0,0,0-9.76-4h-85.5a13.8,13.8,0,0,0-13.8,13.8V61.5h3.54v2h-2.19a1.28,1.28,0,0,0-1.28,1.28v8.44a1.28,1.28,0,0,0,1.28,1.28h2.19v16h-3.54v99.2a13.8,13.8,0,0,0,13.8,13.8h8.29a1,1,0,0,0,1-1.1.9.9,0,0,1,.91-.9h83.23a.9.9,0,0,1,.86.93,1.1,1.1,0,0,0,1.1,1.07h8.17a13.8,13.8,0,0,0,13.81-13.8V85.5h-3.08v-8Zm-15.08,93a12,12,0,0,1-12,12h-76a12,12,0,0,1-12-12v-102a12,12,0,0,1,12-12h76a12,12,0,0,1,12,12Z"/></svg>