<svg id="Layer_1" data-name="Layer 1" xmlns="http://www.w3.org/2000/svg" viewBox="0 0 334.56 239"><path d="M132.93,179.5a9,9,0,0,0,9-9V148.16L131.1,179.5Z"/><path d="M159.13,77.5h.69A1.19,1.19,0,0,0,161,76.3V67.84a15,15,0,0,0-4.39-10.6L139.28,39.89a15,15,0,0,0-10.61-4.39H44.86a15,15,0,0,0-15,15v9.8a1.2,1.2,0,0,0,1.2,1.2h1.35a1,1,0,0,1,0,2A2.47,2.47,0,0,0,29.94,66V72a2.47,2.47,0,0,0,2.47,2.47,1,1,0,0,1,1,1V89.3a1.2,1.2,0,0,1-1.2,1.2H31.06a1.2,1.2,0,0,0-1.2,1.2v96.8a15,15,0,0,0,15,15H51a2.43,2.43,0,0,0,2-1.45.9.9,0,0,1,.83-.55h82.32a2.08,2.08,0,0,1,1.87,1.35,1.11,1.11,0,0,0,1,.65h7a15,15,0,0,0,15-15v-.28a1.19,1.19,0,0,0-1.19-1.19h-3.11a1.2,1.2,0,0,1-1.16-.9L145,146.07s0,0,0-.08v24.5a12,12,0,0,1-12,12h-2.86l-1.24,3.57a1.19,1.19,0,0,1-1.13.8H110.87a2.47,2.47,0,0,1-2.34-3.29l.38-1.08H90c-5.5,4.07-12.59,6.27-20.91,6.27-15.85,0-26-9.17-26.13-23.27a37,37,0,0,1,.24-4.45,3.61,3.61,0,0,1,1.72-2.67V68.51a12,12,0,0,1,12-12h76a12,12,0,0,1,12,12v41.62h8.6a1.2,1.2,0,0,1,1.17.91l3.94,16.21A1.2,1.2,0,0,0,161,127V86.7a1.19,1.19,0,0,0-1.19-1.2h-.69a1.19,1.19,0,0,1-1.19-1.2V78.7A1.19,1.19,0,0,1,159.13,77.5Z"/><path d="M132.93,59.5H57a9,9,0,0,0-9,9v89.32h15a1.2,1.2,0,0,1,1.18,1.38,19.94,19.94,0,0,0-.26,3c0,4.7,2.17,7.53,7.4,7.53s9.69-3.94,11-10.28l9.2-46a4.15,4.15,0,0,1,4.06-3.33H111a1.2,1.2,0,0,1,1.17,1.43L102,162.38a32.88,32.88,0,0,1-8.51,17.12H110l23.54-66.88a3.72,3.72,0,0,1,3.52-2.49h4.91V68.51A9,9,0,0,0,132.93,59.5Z"/><path d="M111.85,110.13H100.26A4.33,4.33,0,0,0,96,113.61l-9.17,45.9c-1.29,6.34-5.67,10.28-11,10.28s-7.4-2.83-7.4-7.53A4.43,4.43,0,0,0,64,157.83h-12a4.33,4.33,0,0,0-4.31,3.92c-.12,1.26-.16,2.48-.16,3.75.15,14.1,10.28,23.27,26.12,23.27,17.59,0,29.69-9.8,32.86-26.39l9.48-47.07A4.32,4.32,0,0,0,111.85,110.13Z"/><path d="M159.58,183.84a4.29,4.29,0,0,0,4.14,3.19h.12a4.29,4.29,0,0,0,3.56-1.91l1.5-2.25h-9.57Z"/><path d="M197.62,186.87H209a4.28,4.28,0,0,0,4.26-4H193.37A4.25,4.25,0,0,0,197.62,186.87Z"/><polygon points="193.88 173.88 193.63 177.88 213.54 177.88 213.73 173.88 193.88 173.88"/><polygon points="194.39 165.88 194.14 169.88 213.93 169.88 214.13 165.88 194.39 165.88"/><polygon points="174.91 173.88 156.95 173.88 158.01 177.88 172.24 177.88 174.91 173.88"/><polygon points="214.23 163.88 214.38 160.88 194.71 160.88 194.52 163.88 214.23 163.88"/><path d="M187,155.72a4.28,4.28,0,0,1,7.83,2.65l-.1,1.5h19.66l2.23-45.25a4.28,4.28,0,0,0-4.27-4.49H198.63a4.27,4.27,0,0,0-3.59,2l-20.37,31.37a4.28,4.28,0,0,1-7.75-1.31l-7-28.74a4.29,4.29,0,0,0-4.16-3.27h-13.7a4.28,4.28,0,0,0-4,2.86l-24,68.18a4.27,4.27,0,0,0,4,5.7h12.09a4.28,4.28,0,0,0,4.05-2.88L144,155.57a4.28,4.28,0,0,1,8.18.3l1.06,4h31Z"/><polygon points="183.59 160.88 153.52 160.88 154.31 163.88 181.59 163.88 183.59 160.88"/><polygon points="180.25 165.88 154.84 165.88 155.9 169.88 177.58 169.88 180.25 165.88"/><path d="M248.69,163.87s0-.06,0-.09l.58-2.91H229l-.6,3Z"/><path d="M255.21,131.53a4.27,4.27,0,0,1,4.2-3.43H265c10.32,0,16.45,5.57,16.45,14.88a27,27,0,0,1-6,16.89h23a45.09,45.09,0,0,0,3.7-18.06c0-18.34-13-31.68-33.15-31.68H242.7a4.28,4.28,0,0,0-4.2,3.44l-9.26,46.3h20.25Z"/><path d="M229.06,186.87h26.75a48.74,48.74,0,0,0,19.54-4H224.79A4.29,4.29,0,0,0,229.06,186.87Z"/><path d="M226.44,173.87l-.8,4h58.44a43.32,43.32,0,0,0,4.75-4Z"/><path d="M257.06,168.91H252.9a4.28,4.28,0,0,1-4.09-3H228l-.8,4h65.21a40.35,40.35,0,0,0,2.86-4H268.44A22.79,22.79,0,0,1,257.06,168.91Z"/><path d="M271.4,163.87h25.11q.83-1.45,1.53-3H274.6A24.51,24.51,0,0,1,271.4,163.87Z"/></svg>