<svg id="Layer_1" data-name="Layer 1" xmlns="http://www.w3.org/2000/svg" viewBox="0 0 334.56 239"><defs><style>.cls-1{fill:#fff;}</style></defs><rect x="43.01" y="59.5" width="94" height="120" rx="9.01"/><path d="M155.08,77.5V67.35a13.76,13.76,0,0,0-4-9.76L133,39.54a13.8,13.8,0,0,0-9.76-4H37.74a13.8,13.8,0,0,0-13.8,13.8V61.5h3.54v2H25.29A1.28,1.28,0,0,0,24,64.78v8.44a1.28,1.28,0,0,0,1.28,1.28h2.19v16H23.94v99.2a13.8,13.8,0,0,0,13.8,13.8H46a1,1,0,0,0,1-1.1.9.9,0,0,1,.9-.9h83.24a.9.9,0,0,1,.86.93,1.1,1.1,0,0,0,1.1,1.07h8.17a13.8,13.8,0,0,0,13.8-13.8V85.5H152v-8Zm-15.07,93a12,12,0,0,1-12,12H52a12,12,0,0,1-12-12v-102a12,12,0,0,1,12-12h76a12,12,0,0,1,12,12Z"/><path d="M82.18,188.27c-15.42,0-25.48-8.94-25.63-22.78a36.27,36.27,0,0,1,.17-3.73,3.76,3.76,0,0,1,3.77-3.43H72.62a3.71,3.71,0,0,1,2.64,1.09,3.91,3.91,0,0,1,1.14,2.8c0,5.29,2.73,8.07,7.9,8.07,5.65,0,10.15-4.19,11.47-10.68L105,113.67a3.79,3.79,0,0,1,3.71-3h11.67a3.8,3.8,0,0,1,3.71,4.53l-9.5,47.12C111.38,178.8,99.59,188.27,82.18,188.27Z"/><path class="cls-1" d="M120.33,111.13a3.29,3.29,0,0,1,2.54,1.2,3.32,3.32,0,0,1,.68,2.73l-9.5,47.13c-3.11,16.26-14.73,25.58-31.87,25.58-15.12,0-25-8.75-25.13-22.27,0-1.36.05-2.53.16-3.7a3.28,3.28,0,0,1,3.28-3H72.62a3.19,3.19,0,0,1,2.29.95,3.45,3.45,0,0,1,1,2.48c0,5.58,2.9,8.53,8.4,8.53,5.9,0,10.59-4.35,12-11.09l9.18-45.93a3.3,3.3,0,0,1,3.22-2.64h11.67m0-1H108.66a4.28,4.28,0,0,0-4.2,3.44l-9.18,45.94c-1.29,6.34-5.67,10.28-11,10.28s-7.4-2.83-7.4-7.53v0a4.32,4.32,0,0,0-4.28-4.39H60.49a4.29,4.29,0,0,0-4.27,3.88c-.12,1.27-.17,2.51-.17,3.79.15,14.1,10.29,23.27,26.13,23.27,17.58,0,29.68-9.8,32.85-26.39l9.5-47.12a4.29,4.29,0,0,0-4.2-5.13Z"/><path d="M172.15,186.53a3.78,3.78,0,0,1-3.65-2.82l-7.38-28a4.74,4.74,0,0,0-4.63-3.56A4.65,4.65,0,0,0,152,155.4l-9.83,28.43a3.79,3.79,0,0,1-3.57,2.55H126.49a3.78,3.78,0,0,1-3.57-5l24-68.18a3.8,3.8,0,0,1,3.57-2.53h13.7a3.79,3.79,0,0,1,3.68,2.89l7,28.73a4.78,4.78,0,0,0,8.66,1.48l20.37-31.38a3.75,3.75,0,0,1,3.17-1.72h13.76a3.78,3.78,0,0,1,3.78,4l-3.37,68.18a3.78,3.78,0,0,1-3.78,3.6h-11.4a3.78,3.78,0,0,1-3.77-4l1.52-23.95a4.68,4.68,0,0,0-1.24-3.56A4.91,4.91,0,0,0,199,153.3a4.68,4.68,0,0,0-3.93,2.14l-19.63,29.4a3.78,3.78,0,0,1-3.15,1.69Z"/><path class="cls-1" d="M220.82,111.13a3.25,3.25,0,0,1,2.38,1,3.3,3.3,0,0,1,.9,2.42l-3.37,68.19a3.29,3.29,0,0,1-3.28,3.12h-11.4a3.22,3.22,0,0,1-2.39-1,3.28,3.28,0,0,1-.89-2.45l1.53-24a5.21,5.21,0,0,0-1.37-3.93,5.45,5.45,0,0,0-4-1.7,5.15,5.15,0,0,0-4.34,2.36L175,184.57a3.28,3.28,0,0,1-2.73,1.46h-.12a3.29,3.29,0,0,1-3.17-2.45l-7.38-28a5.28,5.28,0,0,0-10.1-.38l-9.82,28.43a3.29,3.29,0,0,1-3.1,2.21H126.49a3.29,3.29,0,0,1-3.1-4.38l24-68.18a3.3,3.3,0,0,1,3.1-2.19h13.7a3.27,3.27,0,0,1,3.19,2.51l7,28.73a5.28,5.28,0,0,0,9.56,1.63l20.37-31.37a3.26,3.26,0,0,1,2.75-1.5h13.76m0-1H207.06a4.27,4.27,0,0,0-3.59,2L183.1,143.45a4.2,4.2,0,0,1-3.57,2,4.26,4.26,0,0,1-4.18-3.27l-7-28.74a4.28,4.28,0,0,0-4.16-3.27h-13.7a4.28,4.28,0,0,0-4,2.86l-24,68.18a4.29,4.29,0,0,0,4,5.71h12.09a4.27,4.27,0,0,0,4-2.89l9.83-28.42a4.28,4.28,0,0,1,8.18.3l7.38,28a4.29,4.29,0,0,0,4.14,3.19h.12a4.28,4.28,0,0,0,3.56-1.91l19.64-29.4A4.13,4.13,0,0,1,199,153.8a4.26,4.26,0,0,1,4.32,4.57l-1.52,23.95a4.28,4.28,0,0,0,4.27,4.56h11.4a4.3,4.3,0,0,0,4.28-4.07l3.37-68.19a4.28,4.28,0,0,0-4.28-4.49Z"/><path d="M237.5,186.38a3.78,3.78,0,0,1-3.71-4.53l13.63-68.18a3.81,3.81,0,0,1,3.71-3h26.34c19.53,0,32.66,12.53,32.66,31.18,0,25-20.16,44.57-45.89,44.57Zm30.34-58.78a4.8,4.8,0,0,0-4.69,3.83l-6.5,32.25a4.78,4.78,0,0,0,4.69,5.73h4.16c13.49,0,24.88-12.1,24.88-26.43,0-9.63-6.33-15.38-16.95-15.38Z"/><path class="cls-1" d="M277.47,111.13c9.51,0,17.62,3,23.44,8.68,5.62,5.48,8.72,13.29,8.72,22a43.29,43.29,0,0,1-13.06,31.34,46,46,0,0,1-32.33,12.73H237.5a3.29,3.29,0,0,1-3.22-3.93l13.63-68.18a3.3,3.3,0,0,1,3.22-2.64h26.34m-16.13,58.78h4.16c14,0,25.38-12.08,25.38-26.93,0-9.95-6.52-15.88-17.45-15.88h-5.59a5.3,5.3,0,0,0-5.18,4.23l-6.5,32.26a5.22,5.22,0,0,0,1.09,4.38,5.28,5.28,0,0,0,4.09,1.94m16.13-59.78H251.13a4.28,4.28,0,0,0-4.2,3.44L233.3,181.75a4.29,4.29,0,0,0,4.2,5.13h26.74c26.22,0,46.39-19.66,46.39-45.07,0-18.34-13-31.68-33.16-31.68Zm-16.13,58.78a4.28,4.28,0,0,1-4.2-5.13l6.5-32.25a4.28,4.28,0,0,1,4.2-3.43h5.59c10.32,0,16.45,5.57,16.45,14.88,0,13.53-10.47,25.93-24.38,25.93Z"/></svg>