<svg id="Layer_1" data-name="Layer 1" xmlns="http://www.w3.org/2000/svg" viewBox="0 0 334.56 239"><path d="M165.08,77.5V67.35a13.76,13.76,0,0,0-4-9.76L143,39.54a13.8,13.8,0,0,0-9.76-4H47.74a13.8,13.8,0,0,0-13.8,13.8V61.5h3.54v2H35.29A1.28,1.28,0,0,0,34,64.78v8.44a1.28,1.28,0,0,0,1.28,1.28h2.19v16H33.94v99.2a13.8,13.8,0,0,0,13.8,13.8H56a1,1,0,0,0,1-1.1.9.9,0,0,1,.9-.9h83.24a.9.9,0,0,1,.86.93,1.1,1.1,0,0,0,1.1,1.07h8.17a13.8,13.8,0,0,0,13.8-13.8v-5.46l-.52.79h-5.7L149,147.71v22.78a12,12,0,0,1-12,12h-4.55l-.82,2.38H110.44l.84-2.38H90a36.18,36.18,0,0,1-17.81,4.27c-15.84,0-26-9.17-26.13-23.27a36.1,36.1,0,0,1,.76-7.67H49V68.51a12,12,0,0,1,12-12h76a12,12,0,0,1,12,12v39.62h8.55L165.08,139V85.5H162v-8Z"/><path d="M137,59.5H61a9,9,0,0,0-9,9v87.32H66.8a.09.09,0,0,1,.1.1v4.33c0,4.7,2.18,7.53,7.4,7.53s9.69-3.94,11-10.28l9.87-49.38h20.41L105,160.38c-1.55,8.12-5.24,14.61-10.67,19.12h18l25.13-71.37H146V68.51A9,9,0,0,0,137,59.5Z"/><path d="M137,179.5a9,9,0,0,0,9-9V143.27L133.48,179.5Z"/><polygon points="194.31 140.47 193.1 159.5 212.78 159.5 215.32 108.13 194.74 108.13 167.7 149.78 165.08 139.04 165.08 159.5 181.61 159.5 194.31 140.47"/><polygon points="192.21 173.5 191.96 177.5 211.89 177.5 212.09 173.5 192.21 173.5"/><polygon points="212.58 163.5 212.73 160.5 193.04 160.5 192.85 163.5 212.58 163.5"/><polygon points="192.47 169.5 212.28 169.5 212.48 165.5 192.72 165.5 192.47 169.5"/><polygon points="177.6 165.5 165.08 165.5 165.08 169.5 174.93 169.5 177.6 165.5"/><polygon points="180.94 160.5 165.08 160.5 165.08 163.5 178.94 163.5 180.94 160.5"/><polygon points="191.49 184.88 211.53 184.88 211.64 182.5 191.64 182.5 191.49 184.88"/><polygon points="165.08 184.24 166.25 182.5 165.08 182.5 165.08 184.24"/><polygon points="172.26 173.5 165.08 173.5 165.08 177.5 169.59 177.5 172.26 173.5"/><path d="M255.5,166.91h-9.39l.28-1.41H226.15l-.8,4h64.16a42.06,42.06,0,0,0,3.16-4H263.39A22.62,22.62,0,0,1,255.5,166.91Z"/><path d="M223.75,177.5h56.39a44.87,44.87,0,0,0,5.35-4H224.55Z"/><path d="M267.51,163.5H294c.6-1,1.16-2,1.69-3H271.44A24.32,24.32,0,0,1,267.51,163.5Z"/><path d="M254.34,126.1h9.09c10.32,0,16.45,5.57,16.45,14.88a27,27,0,0,1-7.43,18.52h23.74a45.16,45.16,0,0,0,4.44-19.69c0-18.34-13-31.68-33.16-31.68H237.62L227.35,159.5H247.6Z"/><path d="M222.27,184.88h32a49.34,49.34,0,0,0,15.25-2.38H222.75Z"/><polygon points="246.79 163.5 247.4 160.5 227.15 160.5 226.55 163.5 246.79 163.5"/></svg>