<svg id="Layer_1" data-name="Layer 1" xmlns="http://www.w3.org/2000/svg" viewBox="0 0 334.56 239"><polygon points="167.7 149.78 165.08 139.04 165.08 184.24 194.31 140.47 191.49 184.88 211.53 184.88 215.32 108.13 194.74 108.13 167.7 149.78"/><path d="M267.47,108.13H237.62l-15.35,76.75h32c26.22,0,46.39-19.66,46.39-45.07C300.63,121.47,287.63,108.13,267.47,108.13Zm-12,58.78h-9.39l8.23-40.81h9.09c10.32,0,16.45,5.57,16.45,14.88C279.88,154.51,269.41,166.91,255.5,166.91Z"/><path d="M138,59.5H62a11,11,0,0,0-11,11v85.32H66.8a.09.09,0,0,1,.1.1v4.33c0,4.7,2.18,7.53,7.4,7.53s9.69-3.94,11-10.28l9.87-49.38h20.41L105,160.38c-2.09,11-8.09,19-17,23.12h22.89l26.53-75.37H149V70.51A11,11,0,0,0,138,59.5Z"/><path d="M165.08,77.5V67.35a13.78,13.78,0,0,0-4-9.76L143,39.54a13.8,13.8,0,0,0-9.76-4H47.74a13.8,13.8,0,0,0-13.8,13.8V61.5h3.54v2H35.29A1.28,1.28,0,0,0,34,64.78v8.44a1.28,1.28,0,0,0,1.28,1.28h2.19v16H33.94v99.2a13.8,13.8,0,0,0,13.8,13.8H56a1,1,0,0,0,1-1.1.9.9,0,0,1,.9-.9h83.24a.9.9,0,0,1,.86.93,1.1,1.1,0,0,0,1.1,1.07h8.17a13.8,13.8,0,0,0,13.8-13.8v-5.46l-.52.79h-5.7L150,151.5v21a12,12,0,0,1-12,12h-6.24l-.13.38H110.44l.13-.38H85.66a38.49,38.49,0,0,1-13.48,2.27A31.51,31.51,0,0,1,58.77,184a12,12,0,0,1-6.44-4.47c-4-4-6.21-9.5-6.28-16.07a36.1,36.1,0,0,1,.76-7.67H50V70.51a12,12,0,0,1,12-12h76a12,12,0,0,1,12,12v37.62h7.55L165.08,139V85.5H162v-8Z"/><path d="M138,183.5a11,11,0,0,0,11-11V147.71l-2-7.44-15,43.23Z"/></svg>