<svg id="Layer_1" data-name="Layer 1" xmlns="http://www.w3.org/2000/svg" viewBox="0 0 334.56 239"><defs><style>.cls-1{fill:#fff;}</style></defs><path d="M159.51,77.5h1.07a1,1,0,0,0,1-1V67.76a14.83,14.83,0,0,0-4.33-10.47L139.79,39.84a14.8,14.8,0,0,0-10.47-4.34H45.24a14.8,14.8,0,0,0-14.8,14.8V60.5a1,1,0,0,0,1,1H33a1,1,0,0,1,0,2h-.19a2.28,2.28,0,0,0-2.28,2.28v6.44a2.28,2.28,0,0,0,2.28,2.28H33a1,1,0,0,1,1,1v14a1,1,0,0,1-1,1H31.44a1,1,0,0,0-1,1v97.2a14.8,14.8,0,0,0,14.8,14.8h6.43a2,2,0,0,0,1.87-1.31.89.89,0,0,1,.87-.69h82.4a1.9,1.9,0,0,1,1.77,1.28,1.09,1.09,0,0,0,1,.72h7.17a14.8,14.8,0,0,0,14.8-14.8V188a1,1,0,0,0-1-1h-3.45a1,1,0,0,1-1-.75l-10.65-40.36v24.57a12,12,0,0,1-12,12h-2.86l-1.28,3.7a1,1,0,0,1-1,.67H109.35a1,1,0,0,1-.94-1.33l1.07-3H95.69c-4.17,4.33-11.57,6.62-26,6.27-15.84-.39-26-9.17-26.13-23.27a36.67,36.67,0,0,1,.6-6.86,1,1,0,0,1,1-.81h.37V68.51a12,12,0,0,1,12-12h76a12,12,0,0,1,12,12v41.62h8.76a1,1,0,0,1,1,.76l4.37,18a1,1,0,0,0,2-.23V86.5a1,1,0,0,0-1-1h-1.07a1,1,0,0,1-1-1v-6A1,1,0,0,1,159.51,77.5Z"/><path d="M133.5,57.5h-76a11,11,0,0,0-11,11v89.32h17.2a1,1,0,0,1,1,1.15,20.63,20.63,0,0,0-.29,3.28c0,4.7,2.18,7.53,7.4,7.53s9.69-3.94,11-10.28l9.71-48.58a1,1,0,0,1,1-.8h18.37a1,1,0,0,1,1,1.2l-10.29,51.05c-1.52,8-2.29,14.52-6,19.12h13.26l24.89-70.7a1,1,0,0,1,.95-.67h8.84V68.51A11,11,0,0,0,133.5,57.5Z"/><path d="M143.47,145.38,131,181.5h2.52a11,11,0,0,0,11-11V144.72A1,1,0,0,0,143.47,145.38Z"/><path d="M75.68,188.27c-15.42,0-25.48-8.94-25.63-22.78a36.27,36.27,0,0,1,.17-3.73A3.76,3.76,0,0,1,54,158.33H66.12a3.71,3.71,0,0,1,2.64,1.09,3.91,3.91,0,0,1,1.14,2.8c0,5.29,2.73,8.07,7.9,8.07,5.65,0,10.15-4.19,11.47-10.68l9.18-45.94a3.79,3.79,0,0,1,3.71-3h11.67a3.8,3.8,0,0,1,3.71,4.53L108,162.28C104.88,178.8,93.09,188.27,75.68,188.27Z"/><path class="cls-1" d="M113.83,111.13a3.29,3.29,0,0,1,2.54,1.2,3.32,3.32,0,0,1,.68,2.73l-9.5,47.13c-3.11,16.26-14.73,25.58-31.87,25.58-15.12,0-25-8.75-25.13-22.27,0-1.36.05-2.53.16-3.7a3.28,3.28,0,0,1,3.28-3H66.12a3.19,3.19,0,0,1,2.29.95,3.45,3.45,0,0,1,1,2.48c0,5.58,2.9,8.53,8.4,8.53,5.9,0,10.59-4.35,12-11.09l9.18-45.93a3.3,3.3,0,0,1,3.22-2.64h11.67m0-1H102.16a4.28,4.28,0,0,0-4.2,3.44l-9.18,45.94c-1.29,6.34-5.67,10.28-11,10.28s-7.4-2.83-7.4-7.53v0a4.32,4.32,0,0,0-4.28-4.39H54a4.29,4.29,0,0,0-4.27,3.88c-.12,1.27-.17,2.51-.17,3.79.15,14.1,10.29,23.27,26.13,23.27,17.58,0,29.68-9.8,32.85-26.39l9.5-47.12a4.29,4.29,0,0,0-4.2-5.13Z"/><path d="M165.65,186.53a3.78,3.78,0,0,1-3.65-2.82l-7.38-28a4.74,4.74,0,0,0-4.63-3.56,4.65,4.65,0,0,0-4.51,3.21l-9.83,28.43a3.79,3.79,0,0,1-3.57,2.55H120a3.78,3.78,0,0,1-3.57-5l24-68.18a3.8,3.8,0,0,1,3.57-2.53h13.7a3.79,3.79,0,0,1,3.68,2.89l7,28.73a4.78,4.78,0,0,0,8.66,1.48l20.37-31.38a3.75,3.75,0,0,1,3.17-1.72h13.76a3.79,3.79,0,0,1,3.78,4l-3.37,68.18a3.78,3.78,0,0,1-3.78,3.6h-11.4a3.78,3.78,0,0,1-3.77-4l1.52-23.95a4.68,4.68,0,0,0-1.24-3.56,4.91,4.91,0,0,0-3.58-1.54,4.68,4.68,0,0,0-3.93,2.14l-19.63,29.4a3.78,3.78,0,0,1-3.15,1.69Z"/><path class="cls-1" d="M214.32,111.13a3.25,3.25,0,0,1,2.38,1,3.3,3.3,0,0,1,.9,2.42l-3.37,68.19a3.28,3.28,0,0,1-3.28,3.11h-11.4a3.21,3.21,0,0,1-2.39-1,3.28,3.28,0,0,1-.89-2.45l1.53-24a5.21,5.21,0,0,0-1.37-3.93,5.45,5.45,0,0,0-4-1.7,5.15,5.15,0,0,0-4.34,2.36L168.5,184.57a3.28,3.28,0,0,1-2.73,1.46h-.12a3.29,3.29,0,0,1-3.17-2.45l-7.38-28a5.28,5.28,0,0,0-10.1-.38l-9.82,28.43a3.29,3.29,0,0,1-3.1,2.2H120a3.28,3.28,0,0,1-3.1-4.37l24-68.18a3.3,3.3,0,0,1,3.1-2.19h13.7a3.27,3.27,0,0,1,3.19,2.51l7,28.73a5.28,5.28,0,0,0,9.56,1.63l20.37-31.37a3.26,3.26,0,0,1,2.75-1.5h13.76m0-1H200.56a4.27,4.27,0,0,0-3.59,2L176.6,143.45a4.2,4.2,0,0,1-3.57,2,4.26,4.26,0,0,1-4.18-3.27l-7-28.74a4.28,4.28,0,0,0-4.16-3.27H144a4.28,4.28,0,0,0-4,2.86l-24,68.18a4.28,4.28,0,0,0,4,5.7h12.09a4.26,4.26,0,0,0,4-2.88L146,155.57a4.28,4.28,0,0,1,8.18.3l7.38,28a4.29,4.29,0,0,0,4.14,3.19h.12a4.28,4.28,0,0,0,3.56-1.91L189,155.72a4.13,4.13,0,0,1,3.51-1.92,4.26,4.26,0,0,1,4.32,4.57l-1.52,23.95a4.27,4.27,0,0,0,4.27,4.55H211a4.29,4.29,0,0,0,4.28-4.06l3.37-68.19a4.28,4.28,0,0,0-4.28-4.49Z"/><path d="M231,186.38a3.78,3.78,0,0,1-3.71-4.53l13.63-68.18a3.81,3.81,0,0,1,3.71-3H271c19.53,0,32.66,12.53,32.66,31.18,0,25-20.16,44.57-45.89,44.57Zm30.34-58.78a4.8,4.8,0,0,0-4.69,3.83l-6.5,32.25a4.78,4.78,0,0,0,4.69,5.73H259c13.49,0,24.88-12.1,24.88-26.43,0-9.63-6.34-15.38-16.95-15.38Z"/><path class="cls-1" d="M271,111.13c9.51,0,17.62,3,23.44,8.68,5.62,5.48,8.72,13.29,8.72,22a43.29,43.29,0,0,1-13.06,31.34,45.94,45.94,0,0,1-32.33,12.72H231a3.28,3.28,0,0,1-3.22-3.92l13.63-68.18a3.3,3.3,0,0,1,3.22-2.64H271m-16.13,58.78H259c14,0,25.38-12.08,25.38-26.93,0-9.95-6.52-15.88-17.45-15.88h-5.59a5.3,5.3,0,0,0-5.18,4.23l-6.5,32.26a5.22,5.22,0,0,0,1.09,4.38,5.28,5.28,0,0,0,4.09,1.94M271,110.13H244.63a4.28,4.28,0,0,0-4.2,3.44L226.8,181.75a4.28,4.28,0,0,0,4.2,5.12h26.74c26.22,0,46.39-19.65,46.39-45.06,0-18.34-13-31.68-33.16-31.68Zm-16.13,58.78a4.28,4.28,0,0,1-4.2-5.13l6.5-32.25a4.28,4.28,0,0,1,4.2-3.43h5.59c10.32,0,16.45,5.57,16.45,14.88,0,13.53-10.47,25.93-24.38,25.93Z"/></svg>