<svg id="Layer_1" data-name="Layer 1" xmlns="http://www.w3.org/2000/svg" viewBox="0 0 334.56 239"><path d="M143.26,146,131,181.5h2.52a11,11,0,0,0,11-11V145.2A1.16,1.16,0,0,0,143.26,146Z"/><path d="M159.71,77.5h.68a1.19,1.19,0,0,0,1.19-1.2V67.84a15,15,0,0,0-4.39-10.6L139.85,39.89a15,15,0,0,0-10.61-4.39H45.43a15,15,0,0,0-15,15v9.8a1.19,1.19,0,0,0,1.19,1.2H33a1,1,0,0,1,0,2A2.48,2.48,0,0,0,30.51,66V72A2.48,2.48,0,0,0,33,74.5a1,1,0,0,1,1,1V89.3a1.19,1.19,0,0,1-1.19,1.2H31.63a1.19,1.19,0,0,0-1.19,1.2v96.8a15,15,0,0,0,15,15h6.1a2.43,2.43,0,0,0,2-1.45.91.91,0,0,1,.83-.55h82.32a2.08,2.08,0,0,1,1.87,1.35,1.11,1.11,0,0,0,1,.65h7a15,15,0,0,0,15-15v-.28a1.19,1.19,0,0,0-1.19-1.19h-3.11a1.2,1.2,0,0,1-1.16-.9l-10.57-40.06,0-.08v24.5a12,12,0,0,1-12,12h-2.86l-1.23,3.57a1.21,1.21,0,0,1-1.14.8H111.44a2.47,2.47,0,0,1-2.34-3.29l.38-1.08H90.59c-5.5,4.07-12.59,6.27-20.91,6.27-15.84,0-26-9.17-26.13-23.27a37,37,0,0,1,.24-4.45,3.61,3.61,0,0,1,1.72-2.67V68.51a12,12,0,0,1,12-12h76a12,12,0,0,1,12,12v41.62h8.6a1.2,1.2,0,0,1,1.17.91l3.94,16.21a1.2,1.2,0,0,0,2.36-.28V86.7a1.19,1.19,0,0,0-1.19-1.2h-.68a1.2,1.2,0,0,1-1.2-1.2V78.7A1.2,1.2,0,0,1,159.71,77.5Z"/><path d="M133.5,57.5h-76a11,11,0,0,0-11,11V158a3.62,3.62,0,0,1,.94-.13h16a1.2,1.2,0,0,1,1.18,1.38,19.94,19.94,0,0,0-.26,3c0,4.7,2.18,7.53,7.4,7.53s9.69-3.94,11-10.28l9.2-46A4.15,4.15,0,0,1,96,110.13H111.6a1.2,1.2,0,0,1,1.17,1.43l-10.24,50.82C101,170.5,97.29,177,91.86,181.5h18l24.25-68.88a3.74,3.74,0,0,1,3.52-2.49h6.91V68.51A11,11,0,0,0,133.5,57.5Z"/><path d="M49.55,165.5c0-1.27.05-2.49.17-3.75a4.32,4.32,0,0,1,4.3-3.92H66a4.43,4.43,0,0,1,4.43,4.43h0c0,4.7,2.18,7.53,7.4,7.53s9.69-3.94,11-10.28L98,113.61a4.33,4.33,0,0,1,4.24-3.48h11.59a4.33,4.33,0,0,1,4.24,5.18l-9.49,47.07c-3.17,16.59-15.27,26.39-32.85,26.39C59.84,188.77,49.7,179.6,49.55,165.5Z"/><path d="M218.6,114.62l-3.37,68.19a4.29,4.29,0,0,1-4.28,4.06h-11.4a4.27,4.27,0,0,1-4.27-4.55l1.52-23.95a4.28,4.28,0,0,0-7.83-2.65l-19.64,29.4a4.28,4.28,0,0,1-3.56,1.91h-.12a4.29,4.29,0,0,1-4.14-3.19l-7.38-28a4.28,4.28,0,0,0-8.18-.3L136.12,184a4.26,4.26,0,0,1-4,2.88H120a4.28,4.28,0,0,1-4-5.7L140,113a4.28,4.28,0,0,1,4-2.86h13.7a4.28,4.28,0,0,1,4.16,3.27l7,28.74a4.28,4.28,0,0,0,7.75,1.31L197,112.08a4.27,4.27,0,0,1,3.59-2h13.76A4.28,4.28,0,0,1,218.6,114.62Z"/><path d="M304.13,141.81c0,25.41-20.17,45.06-46.39,45.06H231a4.28,4.28,0,0,1-4.2-5.12l13.63-68.18a4.28,4.28,0,0,1,4.2-3.44H271C291.13,110.13,304.13,123.47,304.13,141.81ZM283.38,143c0-9.31-6.13-14.88-16.45-14.88h-5.59a4.28,4.28,0,0,0-4.2,3.43l-6.5,32.25a4.28,4.28,0,0,0,4.2,5.13H259C272.91,168.91,283.38,156.51,283.38,143Z"/></svg>